<svg xmlns="http://www.w3.org/2000/svg" width="1000" height="250" viewBox="0 0 1000 250" role="img" aria-labelledby="title">
  <title id="title">Beleqet system architecture</title>
  <defs><marker id="arrow" markerWidth="8" markerHeight="8" refX="7" refY="4" orient="auto"><path d="M0 0l8 4-8 4z" fill="#00653b"/></marker></defs>
  <rect width="1000" height="250" rx="24" fill="#f7f9f5"/>
  <g font-family="Inter,Arial,sans-serif" text-anchor="middle">
    <g transform="translate(45 65)"><rect width="180" height="120" rx="20" fill="#fff" stroke="#cbd5e1"/><circle cx="90" cy="38" r="20" fill="#d8ff3e"/><path d="M80 38h20M90 28v20" stroke="#041603" stroke-width="3"/><text x="90" y="78" font-size="17" font-weight="700" fill="#041603">Next.js Web</text><text x="90" y="101" font-size="12" fill="#64748b">App Router · Tailwind</text></g>
    <g transform="translate(295 65)"><rect width="180" height="120" rx="20" fill="#041603"/><circle cx="90" cy="38" r="20" fill="#d8ff3e"/><path d="M80 32h20v14H80zM85 27h10v5" fill="none" stroke="#041603" stroke-width="2"/><text x="90" y="78" font-size="17" font-weight="700" fill="#fff">NestJS API</text><text x="90" y="101" font-size="12" fill="#fff" fill-opacity=".58">JWT · Prisma · REST</text></g>
    <g transform="translate(545 30)"><rect width="180" height="82" rx="18" fill="#fff" stroke="#cbd5e1"/><ellipse cx="42" cy="32" rx="18" ry="8" fill="#00653b"/><path d="M24 32v18c0 5 8 8 18 8s18-3 18-8V32" fill="#00653b"/><text x="112" y="37" font-size="16" font-weight="700" fill="#041603">PostgreSQL</text><text x="112" y="58" font-size="11" fill="#64748b">Persistent data</text></g>
    <g transform="translate(545 138)"><rect width="180" height="82" rx="18" fill="#fff" stroke="#cbd5e1"/><rect x="25" y="22" width="34" height="34" rx="9" fill="#ef4444"/><path d="M34 32h16M34 39h16M34 46h11" stroke="#fff" stroke-width="2"/><text x="112" y="37" font-size="16" font-weight="700" fill="#041603">Redis queues</text><text x="112" y="58" font-size="11" fill="#64748b">BullMQ workers</text></g>
    <g transform="translate(795 65)"><rect width="160" height="120" rx="20" fill="#fff" stroke="#cbd5e1"/><circle cx="80" cy="38" r="20" fill="#00653b"/><path d="M70 38l7 7 14-16" fill="none" stroke="#fff" stroke-width="3"/><text x="80" y="78" font-size="17" font-weight="700" fill="#041603">Integrations</text><text x="80" y="99" font-size="11" fill="#64748b">R2 · SMTP · AI · Chapa</text></g>
  </g>
  <g stroke="#00653b" stroke-width="3" fill="none" marker-end="url(#arrow)"><path d="M225 125h60"/><path d="M475 102h60"/><path d="M475 150h60"/><path d="M725 125h60"/></g>
</svg>
