<svg xmlns="http://www.w3.org/2000/svg" width="1200" height="420" viewBox="0 0 1200 420" role="img" aria-labelledby="title desc">
  <title id="title">Beleqet hiring platform</title>
  <desc id="desc">A premium green banner for the Beleqet full-stack hiring platform.</desc>
  <defs>
    <linearGradient id="bg" x1="0" y1="0" x2="1" y2="1">
      <stop stop-color="#041603"/><stop offset="1" stop-color="#015230"/>
    </linearGradient>
    <radialGradient id="glow"><stop stop-color="#d8ff3e" stop-opacity=".28"/><stop offset="1" stop-color="#d8ff3e" stop-opacity="0"/></radialGradient>
    <filter id="shadow"><feDropShadow dx="0" dy="18" stdDeviation="18" flood-opacity=".25"/></filter>
  </defs>
  <rect width="1200" height="420" rx="32" fill="url(#bg)"/>
  <circle cx="1050" cy="40" r="300" fill="url(#glow)"/>
  <circle cx="80" cy="410" r="230" fill="url(#glow)" opacity=".45"/>
  <g opacity=".08" stroke="#fff"><path d="M0 70h1200M0 140h1200M0 210h1200M0 280h1200M0 350h1200"/><path d="M100 0v420M200 0v420M300 0v420M400 0v420M500 0v420M600 0v420M700 0v420M800 0v420M900 0v420M1000 0v420M1100 0v420"/></g>
  <g transform="translate(88 80)">
    <rect width="76" height="76" rx="22" fill="#d8ff3e"/>
    <g transform="translate(20 20)" fill="none" stroke="#041603" stroke-width="3" stroke-linecap="round" stroke-linejoin="round">
      <rect x="2" y="8" width="32" height="25" rx="6"/><path d="M12 8V5c0-2 1-3 3-3h6c2 0 3 1 3 3v3M2 18h32M15 18v3h6v-3"/>
    </g>
    <text x="96" y="51" fill="#fff" font-family="Inter,Arial,sans-serif" font-size="42" font-weight="800" letter-spacing="-2">Beleqet<tspan fill="#d8ff3e">.</tspan></text>
  </g>
  <text x="88" y="230" fill="#fff" font-family="Inter,Arial,sans-serif" font-size="50" font-weight="800" letter-spacing="-2">Hiring, thoughtfully connected.</text>
  <text x="88" y="274" fill="#fff" fill-opacity=".64" font-family="Inter,Arial,sans-serif" font-size="20">A production-ready jobs, talent, and freelance platform built for Ethiopia.</text>
  <g transform="translate(88 318)" font-family="Inter,Arial,sans-serif" font-size="14" font-weight="700">
    <rect width="138" height="42" rx="21" fill="#d8ff3e"/><text x="69" y="26" fill="#041603" text-anchor="middle">NEXT.JS 14</text>
    <rect x="150" width="118" height="42" rx="21" fill="#fff" fill-opacity=".1" stroke="#fff" stroke-opacity=".14"/><text x="209" y="26" fill="#fff" text-anchor="middle">NESTJS</text>
    <rect x="280" width="132" height="42" rx="21" fill="#fff" fill-opacity=".1" stroke="#fff" stroke-opacity=".14"/><text x="346" y="26" fill="#fff" text-anchor="middle">POSTGRES</text>
    <rect x="424" width="116" height="42" rx="21" fill="#fff" fill-opacity=".1" stroke="#fff" stroke-opacity=".14"/><text x="482" y="26" fill="#fff" text-anchor="middle">REDIS</text>
  </g>
  <g transform="translate(865 112)" filter="url(#shadow)">
    <rect width="250" height="205" rx="24" fill="#fff"/>
    <rect x="24" y="25" width="46" height="46" rx="14" fill="#d8ff3e"/>
    <path d="M38 48h18M47 39v18" stroke="#041603" stroke-width="3" stroke-linecap="round"/>
    <rect x="86" y="28" width="118" height="12" rx="6" fill="#041603"/><rect x="86" y="50" width="82" height="8" rx="4" fill="#94a3b8"/>
    <rect x="24" y="94" width="202" height="10" rx="5" fill="#e2e8f0"/><rect x="24" y="116" width="174" height="10" rx="5" fill="#e2e8f0"/>
    <rect x="24" y="154" width="94" height="30" rx="15" fill="#00653b"/><text x="71" y="174" fill="#fff" text-anchor="middle" font-family="Arial,sans-serif" font-size="12" font-weight="700">APPLY NOW</text>
  </g>
</svg>
